<mxfile host="app.diagrams.net" agent="Mozilla/5.0 (Macintosh; Intel Mac OS X 10_15_7) AppleWebKit/537.36 (KHTML, like Gecko) Chrome/137.0.0.0 Safari/537.36" version="27.1.5">
  <diagram name="페이지-1" id="P8z_qHe6orYgl_zPSYhs">
    <mxGraphModel dx="2705" dy="818" grid="1" gridSize="10" guides="1" tooltips="1" connect="1" arrows="1" fold="1" page="1" pageScale="1" pageWidth="827" pageHeight="1169" math="0" shadow="0">
      <root>
        <mxCell id="0" />
        <mxCell id="1" parent="0" />
        <mxCell id="vcj0kj0NZ2l3KDnPeTcA-8" value="" style="edgeStyle=orthogonalEdgeStyle;rounded=0;orthogonalLoop=1;jettySize=auto;html=1;" edge="1" parent="1">
          <mxGeometry relative="1" as="geometry">
            <mxPoint x="-310" y="345" as="sourcePoint" />
            <mxPoint x="-220" y="345" as="targetPoint" />
          </mxGeometry>
        </mxCell>
        <mxCell id="vcj0kj0NZ2l3KDnPeTcA-1" value="API" style="rounded=0;whiteSpace=wrap;html=1;" vertex="1" parent="1">
          <mxGeometry x="-430" y="325" width="120" height="60" as="geometry" />
        </mxCell>
        <mxCell id="vcj0kj0NZ2l3KDnPeTcA-5" value="" style="edgeStyle=orthogonalEdgeStyle;rounded=0;orthogonalLoop=1;jettySize=auto;html=1;entryX=0;entryY=0.5;entryDx=0;entryDy=0;" edge="1" parent="1">
          <mxGeometry relative="1" as="geometry">
            <mxPoint x="-600" y="345" as="sourcePoint" />
            <mxPoint x="-430" y="345" as="targetPoint" />
          </mxGeometry>
        </mxCell>
        <mxCell id="vcj0kj0NZ2l3KDnPeTcA-2" value="" style="html=1;verticalLabelPosition=bottom;labelBackgroundColor=#ffffff;verticalAlign=top;shadow=0;dashed=0;strokeWidth=1;shape=mxgraph.ios7.misc.iphone;strokeColor=#c0c0c0;" vertex="1" parent="1">
          <mxGeometry x="-640" y="320" width="40" height="70" as="geometry" />
        </mxCell>
        <mxCell id="vcj0kj0NZ2l3KDnPeTcA-11" value="" style="edgeStyle=orthogonalEdgeStyle;rounded=0;orthogonalLoop=1;jettySize=auto;html=1;" edge="1" parent="1" source="vcj0kj0NZ2l3KDnPeTcA-3" target="vcj0kj0NZ2l3KDnPeTcA-1">
          <mxGeometry relative="1" as="geometry" />
        </mxCell>
        <mxCell id="vcj0kj0NZ2l3KDnPeTcA-3" value="DB" style="shape=cylinder3;whiteSpace=wrap;html=1;boundedLbl=1;backgroundOutline=1;size=15;" vertex="1" parent="1">
          <mxGeometry x="-220" y="315" width="60" height="80" as="geometry" />
        </mxCell>
        <mxCell id="vcj0kj0NZ2l3KDnPeTcA-6" value="" style="edgeStyle=orthogonalEdgeStyle;rounded=0;orthogonalLoop=1;jettySize=auto;html=1;entryX=1.033;entryY=0.708;entryDx=0;entryDy=0;exitX=0;exitY=0.75;exitDx=0;exitDy=0;entryPerimeter=0;" edge="1" parent="1">
          <mxGeometry relative="1" as="geometry">
            <mxPoint x="-430" y="360" as="sourcePoint" />
            <mxPoint x="-598.6799999999998" y="359.55999999999995" as="targetPoint" />
          </mxGeometry>
        </mxCell>
        <mxCell id="vcj0kj0NZ2l3KDnPeTcA-7" value="Api를 통한 통신" style="text;html=1;align=center;verticalAlign=middle;whiteSpace=wrap;rounded=0;" vertex="1" parent="1">
          <mxGeometry x="-590" y="370" width="80" height="20" as="geometry" />
        </mxCell>
      </root>
    </mxGraphModel>
  </diagram>
</mxfile>
